<svg width="200" height="200" viewBox="0 0 200 200" fill="none" xmlns="http://www.w3.org/2000/svg">
<g clip-path="url(#clip0_38_6543)">
<path d="M200 0H0V200H200V0Z" fill="white"/>
<path d="M53.6583 9.75586H48.7803V14.6339H53.6583V9.75586Z" fill="black"/>
<path d="M68.2926 9.75586H63.4146V14.6339H68.2926V9.75586Z" fill="black"/>
<path d="M78.0485 9.75586H73.1704V14.6339H78.0485V9.75586Z" fill="black"/>
<path d="M82.9264 9.75586H78.0483V14.6339H82.9264V9.75586Z" fill="black"/>
<path d="M92.6827 9.75586H87.8047V14.6339H92.6827V9.75586Z" fill="black"/>
<path d="M102.439 9.75586H97.5605V14.6339H102.439V9.75586Z" fill="black"/>
<path d="M112.195 9.75586H107.317V14.6339H112.195V9.75586Z" fill="black"/>
<path d="M117.073 9.75586H112.195V14.6339H117.073V9.75586Z" fill="black"/>
<path d="M121.951 9.75586H117.073V14.6339H121.951V9.75586Z" fill="black"/>
<path d="M126.829 9.75586H121.951V14.6339H126.829V9.75586Z" fill="black"/>
<path d="M131.707 9.75586H126.829V14.6339H131.707V9.75586Z" fill="black"/>
<path d="M53.6583 14.6338H48.7803V19.5118H53.6583V14.6338Z" fill="black"/>
<path d="M58.5363 14.6338H53.6582V19.5118H58.5363V14.6338Z" fill="black"/>
<path d="M68.2926 14.6338H63.4146V19.5118H68.2926V14.6338Z" fill="black"/>
<path d="M78.0485 14.6338H73.1704V19.5118H78.0485V14.6338Z" fill="black"/>
<path d="M82.9264 14.6338H78.0483V19.5118H82.9264V14.6338Z" fill="black"/>
<path d="M87.8048 14.6338H82.9268V19.5118H87.8048V14.6338Z" fill="black"/>
<path d="M102.439 14.6338H97.5605V19.5118H102.439V14.6338Z" fill="black"/>
<path d="M107.317 14.6338H102.439V19.5118H107.317V14.6338Z" fill="black"/>
<path d="M112.195 14.6338H107.317V19.5118H112.195V14.6338Z" fill="black"/>
<path d="M117.073 14.6338H112.195V19.5118H117.073V14.6338Z" fill="black"/>
<path d="M126.829 14.6338H121.951V19.5118H126.829V14.6338Z" fill="black"/>
<path d="M131.707 14.6338H126.829V19.5118H131.707V14.6338Z" fill="black"/>
<path d="M141.463 14.6338H136.585V19.5118H141.463V14.6338Z" fill="black"/>
<path d="M151.219 14.6338H146.341V19.5118H151.219V14.6338Z" fill="black"/>
<path d="M58.5363 19.5117H53.6582V24.3898H58.5363V19.5117Z" fill="black"/>
<path d="M73.1705 19.5117H68.2925V24.3898H73.1705V19.5117Z" fill="black"/>
<path d="M78.0485 19.5117H73.1704V24.3898H78.0485V19.5117Z" fill="black"/>
<path d="M92.6827 19.5117H87.8047V24.3898H92.6827V19.5117Z" fill="black"/>
<path d="M112.195 19.5117H107.317V24.3898H112.195V19.5117Z" fill="black"/>
<path d="M126.829 19.5117H121.951V24.3898H126.829V19.5117Z" fill="black"/>
<path d="M136.585 19.5117H131.707V24.3898H136.585V19.5117Z" fill="black"/>
<path d="M151.219 19.5117H146.341V24.3898H151.219V19.5117Z" fill="black"/>
<path d="M53.6583 24.3896H48.7803V29.2677H53.6583V24.3896Z" fill="black"/>
<path d="M63.4142 24.3896H58.5361V29.2677H63.4142V24.3896Z" fill="black"/>
<path d="M73.1705 24.3896H68.2925V29.2677H73.1705V24.3896Z" fill="black"/>
<path d="M78.0485 24.3896H73.1704V29.2677H78.0485V24.3896Z" fill="black"/>
<path d="M87.8048 24.3896H82.9268V29.2677H87.8048V24.3896Z" fill="black"/>
<path d="M92.6827 24.3896H87.8047V29.2677H92.6827V24.3896Z" fill="black"/>
<path d="M97.5607 24.3896H92.6826V29.2677H97.5607V24.3896Z" fill="black"/>
<path d="M107.317 24.3896H102.439V29.2677H107.317V24.3896Z" fill="black"/>
<path d="M112.195 24.3896H107.317V29.2677H112.195V24.3896Z" fill="black"/>
<path d="M136.585 24.3896H131.707V29.2677H136.585V24.3896Z" fill="black"/>
<path d="M141.463 24.3896H136.585V29.2677H141.463V24.3896Z" fill="black"/>
<path d="M151.219 24.3896H146.341V29.2677H151.219V24.3896Z" fill="black"/>
<path d="M58.5363 29.2676H53.6582V34.1456H58.5363V29.2676Z" fill="black"/>
<path d="M68.2926 29.2676H63.4146V34.1456H68.2926V29.2676Z" fill="black"/>
<path d="M73.1705 29.2676H68.2925V34.1456H73.1705V29.2676Z" fill="black"/>
<path d="M78.0485 29.2676H73.1704V34.1456H78.0485V29.2676Z" fill="black"/>
<path d="M87.8048 29.2676H82.9268V34.1456H87.8048V29.2676Z" fill="black"/>
<path d="M97.5607 29.2676H92.6826V34.1456H97.5607V29.2676Z" fill="black"/>
<path d="M107.317 29.2676H102.439V34.1456H107.317V29.2676Z" fill="black"/>
<path d="M131.707 29.2676H126.829V34.1456H131.707V29.2676Z" fill="black"/>
<path d="M136.585 29.2676H131.707V34.1456H136.585V29.2676Z" fill="black"/>
<path d="M141.463 29.2676H136.585V34.1456H141.463V29.2676Z" fill="black"/>
<path d="M146.341 29.2676H141.463V34.1456H146.341V29.2676Z" fill="black"/>
<path d="M151.219 29.2676H146.341V34.1456H151.219V29.2676Z" fill="black"/>
<path d="M58.5363 34.1465H53.6582V39.0245H58.5363V34.1465Z" fill="black"/>
<path d="M107.317 34.1465H102.439V39.0245H107.317V34.1465Z" fill="black"/>
<path d="M131.707 34.1465H126.829V39.0245H131.707V34.1465Z" fill="black"/>
<path d="M141.463 34.1465H136.585V39.0245H141.463V34.1465Z" fill="black"/>
<path d="M151.219 34.1465H146.341V39.0245H151.219V34.1465Z" fill="black"/>
<path d="M53.6583 39.0244H48.7803V43.9025H53.6583V39.0244Z" fill="black"/>
<path d="M63.4142 39.0244H58.5361V43.9025H63.4142V39.0244Z" fill="black"/>
<path d="M73.1705 39.0244H68.2925V43.9025H73.1705V39.0244Z" fill="black"/>
<path d="M82.9264 39.0244H78.0483V43.9025H82.9264V39.0244Z" fill="black"/>
<path d="M92.6827 39.0244H87.8047V43.9025H92.6827V39.0244Z" fill="black"/>
<path d="M102.439 39.0244H97.5605V43.9025H102.439V39.0244Z" fill="black"/>
<path d="M112.195 39.0244H107.317V43.9025H112.195V39.0244Z" fill="black"/>
<path d="M121.951 39.0244H117.073V43.9025H121.951V39.0244Z" fill="black"/>
<path d="M131.707 39.0244H126.829V43.9025H131.707V39.0244Z" fill="black"/>
<path d="M141.463 39.0244H136.585V43.9025H141.463V39.0244Z" fill="black"/>
<path d="M151.219 39.0244H146.341V43.9025H151.219V39.0244Z" fill="black"/>
<path d="M53.6583 43.9023H48.7803V48.7804H53.6583V43.9023Z" fill="black"/>
<path d="M58.5363 43.9023H53.6582V48.7804H58.5363V43.9023Z" fill="black"/>
<path d="M68.2926 43.9023H63.4146V48.7804H68.2926V43.9023Z" fill="black"/>
<path d="M78.0485 43.9023H73.1704V48.7804H78.0485V43.9023Z" fill="black"/>
<path d="M82.9264 43.9023H78.0483V48.7804H82.9264V43.9023Z" fill="black"/>
<path d="M87.8048 43.9023H82.9268V48.7804H87.8048V43.9023Z" fill="black"/>
<path d="M97.5607 43.9023H92.6826V48.7804H97.5607V43.9023Z" fill="black"/>
<path d="M102.439 43.9023H97.5605V48.7804H102.439V43.9023Z" fill="black"/>
<path d="M107.317 43.9023H102.439V48.7804H107.317V43.9023Z" fill="black"/>
<path d="M121.951 43.9023H117.073V48.7804H121.951V43.9023Z" fill="black"/>
<path d="M126.829 43.9023H121.951V48.7804H126.829V43.9023Z" fill="black"/>
<path d="M131.707 43.9023H126.829V48.7804H131.707V43.9023Z" fill="black"/>
<path d="M14.6339 48.7803H9.75586V53.6583H14.6339V48.7803Z" fill="black"/>
<path d="M24.3898 48.7803H19.5117V53.6583H24.3898V48.7803Z" fill="black"/>
<path d="M29.2682 48.7803H24.3901V53.6583H29.2682V48.7803Z" fill="black"/>
<path d="M39.024 48.7803H34.146V53.6583H39.024V48.7803Z" fill="black"/>
<path d="M43.902 48.7803H39.0239V53.6583H43.902V48.7803Z" fill="black"/>
<path d="M48.7804 48.7803H43.9023V53.6583H48.7804V48.7803Z" fill="black"/>
<path d="M63.4142 48.7803H58.5361V53.6583H63.4142V48.7803Z" fill="black"/>
<path d="M68.2926 48.7803H63.4146V53.6583H68.2926V48.7803Z" fill="black"/>
<path d="M73.1705 48.7803H68.2925V53.6583H73.1705V48.7803Z" fill="black"/>
<path d="M78.0485 48.7803H73.1704V53.6583H78.0485V48.7803Z" fill="black"/>
<path d="M82.9264 48.7803H78.0483V53.6583H82.9264V48.7803Z" fill="black"/>
<path d="M92.6827 48.7803H87.8047V53.6583H92.6827V48.7803Z" fill="black"/>
<path d="M107.317 48.7803H102.439V53.6583H107.317V48.7803Z" fill="black"/>
<path d="M112.195 48.7803H107.317V53.6583H112.195V48.7803Z" fill="black"/>
<path d="M117.073 48.7803H112.195V53.6583H117.073V48.7803Z" fill="black"/>
<path d="M121.951 48.7803H117.073V53.6583H121.951V48.7803Z" fill="black"/>
<path d="M131.707 48.7803H126.829V53.6583H131.707V48.7803Z" fill="black"/>
<path d="M141.463 48.7803H136.585V53.6583H141.463V48.7803Z" fill="black"/>
<path d="M160.975 48.7803H156.097V53.6583H160.975V48.7803Z" fill="black"/>
<path d="M175.609 48.7803H170.731V53.6583H175.609V48.7803Z" fill="black"/>
<path d="M185.366 48.7803H180.488V53.6583H185.366V48.7803Z" fill="black"/>
<path d="M190.244 48.7803H185.366V53.6583H190.244V48.7803Z" fill="black"/>
<path d="M14.6339 53.6582H9.75586V58.5363H14.6339V53.6582Z" fill="black"/>
<path d="M19.5118 53.6582H14.6338V58.5363H19.5118V53.6582Z" fill="black"/>
<path d="M24.3898 53.6582H19.5117V58.5363H24.3898V53.6582Z" fill="black"/>
<path d="M39.024 53.6582H34.146V58.5363H39.024V53.6582Z" fill="black"/>
<path d="M53.6583 53.6582H48.7803V58.5363H53.6583V53.6582Z" fill="black"/>
<path d="M78.0485 53.6582H73.1704V58.5363H78.0485V53.6582Z" fill="black"/>
<path d="M82.9264 53.6582H78.0483V58.5363H82.9264V53.6582Z" fill="black"/>
<path d="M87.8048 53.6582H82.9268V58.5363H87.8048V53.6582Z" fill="black"/>
<path d="M92.6827 53.6582H87.8047V58.5363H92.6827V53.6582Z" fill="black"/>
<path d="M121.951 53.6582H117.073V58.5363H121.951V53.6582Z" fill="black"/>
<path d="M126.829 53.6582H121.951V58.5363H126.829V53.6582Z" fill="black"/>
<path d="M131.707 53.6582H126.829V58.5363H131.707V53.6582Z" fill="black"/>
<path d="M136.585 53.6582H131.707V58.5363H136.585V53.6582Z" fill="black"/>
<path d="M151.219 53.6582H146.341V58.5363H151.219V53.6582Z" fill="black"/>
<path d="M165.854 53.6582H160.976V58.5363H165.854V53.6582Z" fill="black"/>
<path d="M180.487 53.6582H175.609V58.5363H180.487V53.6582Z" fill="black"/>
<path d="M185.366 53.6582H180.488V58.5363H185.366V53.6582Z" fill="black"/>
<path d="M19.5118 58.5361H14.6338V63.4142H19.5118V58.5361Z" fill="black"/>
<path d="M29.2682 58.5361H24.3901V63.4142H29.2682V58.5361Z" fill="black"/>
<path d="M34.1461 58.5361H29.2681V63.4142H34.1461V58.5361Z" fill="black"/>
<path d="M43.902 58.5361H39.0239V63.4142H43.902V58.5361Z" fill="black"/>
<path d="M63.4142 58.5361H58.5361V63.4142H63.4142V58.5361Z" fill="black"/>
<path d="M82.9264 58.5361H78.0483V63.4142H82.9264V58.5361Z" fill="black"/>
<path d="M87.8048 58.5361H82.9268V63.4142H87.8048V58.5361Z" fill="black"/>
<path d="M97.5607 58.5361H92.6826V63.4142H97.5607V58.5361Z" fill="black"/>
<path d="M102.439 58.5361H97.5605V63.4142H102.439V58.5361Z" fill="black"/>
<path d="M117.073 58.5361H112.195V63.4142H117.073V58.5361Z" fill="black"/>
<path d="M121.951 58.5361H117.073V63.4142H121.951V58.5361Z" fill="black"/>
<path d="M126.829 58.5361H121.951V63.4142H126.829V58.5361Z" fill="black"/>
<path d="M131.707 58.5361H126.829V63.4142H131.707V58.5361Z" fill="black"/>
<path d="M151.219 58.5361H146.341V63.4142H151.219V58.5361Z" fill="black"/>
<path d="M156.097 58.5361H151.219V63.4142H156.097V58.5361Z" fill="black"/>
<path d="M175.609 58.5361H170.731V63.4142H175.609V58.5361Z" fill="black"/>
<path d="M14.6339 63.4141H9.75586V68.2921H14.6339V63.4141Z" fill="black"/>
<path d="M24.3898 63.4141H19.5117V68.2921H24.3898V63.4141Z" fill="black"/>
<path d="M34.1461 63.4141H29.2681V68.2921H34.1461V63.4141Z" fill="black"/>
<path d="M39.024 63.4141H34.146V68.2921H39.024V63.4141Z" fill="black"/>
<path d="M48.7804 63.4141H43.9023V68.2921H48.7804V63.4141Z" fill="black"/>
<path d="M58.5363 63.4141H53.6582V68.2921H58.5363V63.4141Z" fill="black"/>
<path d="M63.4142 63.4141H58.5361V68.2921H63.4142V63.4141Z" fill="black"/>
<path d="M78.0485 63.4141H73.1704V68.2921H78.0485V63.4141Z" fill="black"/>
<path d="M87.8048 63.4141H82.9268V68.2921H87.8048V63.4141Z" fill="black"/>
<path d="M102.439 63.4141H97.5605V68.2921H102.439V63.4141Z" fill="black"/>
<path d="M107.317 63.4141H102.439V68.2921H107.317V63.4141Z" fill="black"/>
<path d="M126.829 63.4141H121.951V68.2921H126.829V63.4141Z" fill="black"/>
<path d="M136.585 63.4141H131.707V68.2921H136.585V63.4141Z" fill="black"/>
<path d="M156.097 63.4141H151.219V68.2921H156.097V63.4141Z" fill="black"/>
<path d="M175.609 63.4141H170.731V68.2921H175.609V63.4141Z" fill="black"/>
<path d="M180.487 63.4141H175.609V68.2921H180.487V63.4141Z" fill="black"/>
<path d="M14.6339 68.292H9.75586V73.17H14.6339V68.292Z" fill="black"/>
<path d="M19.5118 68.292H14.6338V73.17H19.5118V68.292Z" fill="black"/>
<path d="M29.2682 68.292H24.3901V73.17H29.2682V68.292Z" fill="black"/>
<path d="M34.1461 68.292H29.2681V73.17H34.1461V68.292Z" fill="black"/>
<path d="M39.024 68.292H34.146V73.17H39.024V68.292Z" fill="black"/>
<path d="M43.902 68.292H39.0239V73.17H43.902V68.292Z" fill="black"/>
<path d="M48.7804 68.292H43.9023V73.17H48.7804V68.292Z" fill="black"/>
<path d="M53.6583 68.292H48.7803V73.17H53.6583V68.292Z" fill="black"/>
<path d="M58.5363 68.292H53.6582V73.17H58.5363V68.292Z" fill="black"/>
<path d="M63.4142 68.292H58.5361V73.17H63.4142V68.292Z" fill="black"/>
<path d="M78.0485 68.292H73.1704V73.17H78.0485V68.292Z" fill="black"/>
<path d="M82.9264 68.292H78.0483V73.17H82.9264V68.292Z" fill="black"/>
<path d="M97.5607 68.292H92.6826V73.17H97.5607V68.292Z" fill="black"/>
<path d="M102.439 68.292H97.5605V73.17H102.439V68.292Z" fill="black"/>
<path d="M112.195 68.292H107.317V73.17H112.195V68.292Z" fill="black"/>
<path d="M121.951 68.292H117.073V73.17H121.951V68.292Z" fill="black"/>
<path d="M136.585 68.292H131.707V73.17H136.585V68.292Z" fill="black"/>
<path d="M141.463 68.292H136.585V73.17H141.463V68.292Z" fill="black"/>
<path d="M146.341 68.292H141.463V73.17H146.341V68.292Z" fill="black"/>
<path d="M151.219 68.292H146.341V73.17H151.219V68.292Z" fill="black"/>
<path d="M156.097 68.292H151.219V73.17H156.097V68.292Z" fill="black"/>
<path d="M160.975 68.292H156.097V73.17H160.975V68.292Z" fill="black"/>
<path d="M170.732 68.292H165.854V73.17H170.732V68.292Z" fill="black"/>
<path d="M180.487 68.292H175.609V73.17H180.487V68.292Z" fill="black"/>
<path d="M185.366 68.292H180.488V73.17H185.366V68.292Z" fill="black"/>
<path d="M190.244 68.292H185.366V73.17H190.244V68.292Z" fill="black"/>
<path d="M24.3898 73.1709H19.5117V78.0489H24.3898V73.1709Z" fill="black"/>
<path d="M39.024 73.1709H34.146V78.0489H39.024V73.1709Z" fill="black"/>
<path d="M58.5363 73.1709H53.6582V78.0489H58.5363V73.1709Z" fill="black"/>
<path d="M68.2926 73.1709H63.4146V78.0489H68.2926V73.1709Z" fill="black"/>
<path d="M82.9264 73.1709H78.0483V78.0489H82.9264V73.1709Z" fill="black"/>
<path d="M87.8048 73.1709H82.9268V78.0489H87.8048V73.1709Z" fill="black"/>
<path d="M92.6827 73.1709H87.8047V78.0489H92.6827V73.1709Z" fill="black"/>
<path d="M107.317 73.1709H102.439V78.0489H107.317V73.1709Z" fill="black"/>
<path d="M131.707 73.1709H126.829V78.0489H131.707V73.1709Z" fill="black"/>
<path d="M136.585 73.1709H131.707V78.0489H136.585V73.1709Z" fill="black"/>
<path d="M141.463 73.1709H136.585V78.0489H141.463V73.1709Z" fill="black"/>
<path d="M146.341 73.1709H141.463V78.0489H146.341V73.1709Z" fill="black"/>
<path d="M151.219 73.1709H146.341V78.0489H151.219V73.1709Z" fill="black"/>
<path d="M160.975 73.1709H156.097V78.0489H160.975V73.1709Z" fill="black"/>
<path d="M165.854 73.1709H160.976V78.0489H165.854V73.1709Z" fill="black"/>
<path d="M170.732 73.1709H165.854V78.0489H170.732V73.1709Z" fill="black"/>
<path d="M175.609 73.1709H170.731V78.0489H175.609V73.1709Z" fill="black"/>
<path d="M185.366 73.1709H180.488V78.0489H185.366V73.1709Z" fill="black"/>
<path d="M190.244 73.1709H185.366V78.0489H190.244V73.1709Z" fill="black"/>
<path d="M19.5118 78.0488H14.6338V82.9269H19.5118V78.0488Z" fill="black"/>
<path d="M43.902 78.0488H39.0239V82.9269H43.902V78.0488Z" fill="black"/>
<path d="M48.7804 78.0488H43.9023V82.9269H48.7804V78.0488Z" fill="black"/>
<path d="M58.5363 78.0488H53.6582V82.9269H58.5363V78.0488Z" fill="black"/>
<path d="M78.0485 78.0488H73.1704V82.9269H78.0485V78.0488Z" fill="black"/>
<path d="M82.9264 78.0488H78.0483V82.9269H82.9264V78.0488Z" fill="black"/>
<path d="M97.5607 78.0488H92.6826V82.9269H97.5607V78.0488Z" fill="black"/>
<path d="M102.439 78.0488H97.5605V82.9269H102.439V78.0488Z" fill="black"/>
<path d="M107.317 78.0488H102.439V82.9269H107.317V78.0488Z" fill="black"/>
<path d="M112.195 78.0488H107.317V82.9269H112.195V78.0488Z" fill="black"/>
<path d="M121.951 78.0488H117.073V82.9269H121.951V78.0488Z" fill="black"/>
<path d="M131.707 78.0488H126.829V82.9269H131.707V78.0488Z" fill="black"/>
<path d="M136.585 78.0488H131.707V82.9269H136.585V78.0488Z" fill="black"/>
<path d="M156.097 78.0488H151.219V82.9269H156.097V78.0488Z" fill="black"/>
<path d="M170.732 78.0488H165.854V82.9269H170.732V78.0488Z" fill="black"/>
<path d="M180.487 78.0488H175.609V82.9269H180.487V78.0488Z" fill="black"/>
<path d="M24.3898 82.9268H19.5117V87.8048H24.3898V82.9268Z" fill="black"/>
<path d="M29.2682 82.9268H24.3901V87.8048H29.2682V82.9268Z" fill="black"/>
<path d="M53.6583 82.9268H48.7803V87.8048H53.6583V82.9268Z" fill="black"/>
<path d="M73.1705 82.9268H68.2925V87.8048H73.1705V82.9268Z" fill="black"/>
<path d="M87.8048 82.9268H82.9268V87.8048H87.8048V82.9268Z" fill="black"/>
<path d="M92.6827 82.9268H87.8047V87.8048H92.6827V82.9268Z" fill="black"/>
<path d="M97.5607 82.9268H92.6826V87.8048H97.5607V82.9268Z" fill="black"/>
<path d="M102.439 82.9268H97.5605V87.8048H102.439V82.9268Z" fill="black"/>
<path d="M112.195 82.9268H107.317V87.8048H112.195V82.9268Z" fill="black"/>
<path d="M117.073 82.9268H112.195V87.8048H117.073V82.9268Z" fill="black"/>
<path d="M126.829 82.9268H121.951V87.8048H126.829V82.9268Z" fill="black"/>
<path d="M141.463 82.9268H136.585V87.8048H141.463V82.9268Z" fill="black"/>
<path d="M146.341 82.9268H141.463V87.8048H146.341V82.9268Z" fill="black"/>
<path d="M156.097 82.9268H151.219V87.8048H156.097V82.9268Z" fill="black"/>
<path d="M160.975 82.9268H156.097V87.8048H160.975V82.9268Z" fill="black"/>
<path d="M165.854 82.9268H160.976V87.8048H165.854V82.9268Z" fill="black"/>
<path d="M170.732 82.9268H165.854V87.8048H170.732V82.9268Z" fill="black"/>
<path d="M190.244 82.9268H185.366V87.8048H190.244V82.9268Z" fill="black"/>
<path d="M19.5118 87.8047H14.6338V92.6827H19.5118V87.8047Z" fill="black"/>
<path d="M29.2682 87.8047H24.3901V92.6827H29.2682V87.8047Z" fill="black"/>
<path d="M43.902 87.8047H39.0239V92.6827H43.902V87.8047Z" fill="black"/>
<path d="M68.2926 87.8047H63.4146V92.6827H68.2926V87.8047Z" fill="black"/>
<path d="M73.1705 87.8047H68.2925V92.6827H73.1705V87.8047Z" fill="black"/>
<path d="M87.8048 87.8047H82.9268V92.6827H87.8048V87.8047Z" fill="black"/>
<path d="M92.6827 87.8047H87.8047V92.6827H92.6827V87.8047Z" fill="black"/>
<path d="M97.5607 87.8047H92.6826V92.6827H97.5607V87.8047Z" fill="black"/>
<path d="M102.439 87.8047H97.5605V92.6827H102.439V87.8047Z" fill="black"/>
<path d="M112.195 87.8047H107.317V92.6827H112.195V87.8047Z" fill="black"/>
<path d="M117.073 87.8047H112.195V92.6827H117.073V87.8047Z" fill="black"/>
<path d="M131.707 87.8047H126.829V92.6827H131.707V87.8047Z" fill="black"/>
<path d="M136.585 87.8047H131.707V92.6827H136.585V87.8047Z" fill="black"/>
<path d="M156.097 87.8047H151.219V92.6827H156.097V87.8047Z" fill="black"/>
<path d="M165.854 87.8047H160.976V92.6827H165.854V87.8047Z" fill="black"/>
<path d="M175.609 87.8047H170.731V92.6827H175.609V87.8047Z" fill="black"/>
<path d="M180.487 87.8047H175.609V92.6827H180.487V87.8047Z" fill="black"/>
<path d="M14.6339 92.6826H9.75586V97.5607H14.6339V92.6826Z" fill="black"/>
<path d="M19.5118 92.6826H14.6338V97.5607H19.5118V92.6826Z" fill="black"/>
<path d="M24.3898 92.6826H19.5117V97.5607H24.3898V92.6826Z" fill="black"/>
<path d="M34.1461 92.6826H29.2681V97.5607H34.1461V92.6826Z" fill="black"/>
<path d="M39.024 92.6826H34.146V97.5607H39.024V92.6826Z" fill="black"/>
<path d="M53.6583 92.6826H48.7803V97.5607H53.6583V92.6826Z" fill="black"/>
<path d="M58.5363 92.6826H53.6582V97.5607H58.5363V92.6826Z" fill="black"/>
<path d="M63.4142 92.6826H58.5361V97.5607H63.4142V92.6826Z" fill="black"/>
<path d="M78.0485 92.6826H73.1704V97.5607H78.0485V92.6826Z" fill="black"/>
<path d="M92.6827 92.6826H87.8047V97.5607H92.6827V92.6826Z" fill="black"/>
<path d="M97.5607 92.6826H92.6826V97.5607H97.5607V92.6826Z" fill="black"/>
<path d="M107.317 92.6826H102.439V97.5607H107.317V92.6826Z" fill="black"/>
<path d="M112.195 92.6826H107.317V97.5607H112.195V92.6826Z" fill="black"/>
<path d="M126.829 92.6826H121.951V97.5607H126.829V92.6826Z" fill="black"/>
<path d="M136.585 92.6826H131.707V97.5607H136.585V92.6826Z" fill="black"/>
<path d="M146.341 92.6826H141.463V97.5607H146.341V92.6826Z" fill="black"/>
<path d="M160.975 92.6826H156.097V97.5607H160.975V92.6826Z" fill="black"/>
<path d="M180.487 92.6826H175.609V97.5607H180.487V92.6826Z" fill="black"/>
<path d="M185.366 92.6826H180.488V97.5607H185.366V92.6826Z" fill="black"/>
<path d="M190.244 92.6826H185.366V97.5607H190.244V92.6826Z" fill="black"/>
<path d="M24.3898 97.5605H19.5117V102.439H24.3898V97.5605Z" fill="black"/>
<path d="M29.2682 97.5605H24.3901V102.439H29.2682V97.5605Z" fill="black"/>
<path d="M39.024 97.5605H34.146V102.439H39.024V97.5605Z" fill="black"/>
<path d="M43.902 97.5605H39.0239V102.439H43.902V97.5605Z" fill="black"/>
<path d="M48.7804 97.5605H43.9023V102.439H48.7804V97.5605Z" fill="black"/>
<path d="M82.9264 97.5605H78.0483V102.439H82.9264V97.5605Z" fill="black"/>
<path d="M87.8048 97.5605H82.9268V102.439H87.8048V97.5605Z" fill="black"/>
<path d="M92.6827 97.5605H87.8047V102.439H92.6827V97.5605Z" fill="black"/>
<path d="M107.317 97.5605H102.439V102.439H107.317V97.5605Z" fill="black"/>
<path d="M117.073 97.5605H112.195V102.439H117.073V97.5605Z" fill="black"/>
<path d="M141.463 97.5605H136.585V102.439H141.463V97.5605Z" fill="black"/>
<path d="M146.341 97.5605H141.463V102.439H146.341V97.5605Z" fill="black"/>
<path d="M160.975 97.5605H156.097V102.439H160.975V97.5605Z" fill="black"/>
<path d="M165.854 97.5605H160.976V102.439H165.854V97.5605Z" fill="black"/>
<path d="M175.609 97.5605H170.731V102.439H175.609V97.5605Z" fill="black"/>
<path d="M180.487 97.5605H175.609V102.439H180.487V97.5605Z" fill="black"/>
<path d="M185.366 97.5605H180.488V102.439H185.366V97.5605Z" fill="black"/>
<path d="M190.244 97.5605H185.366V102.439H190.244V97.5605Z" fill="black"/>
<path d="M39.024 102.438H34.146V107.317H39.024V102.438Z" fill="black"/>
<path d="M48.7804 102.438H43.9023V107.317H48.7804V102.438Z" fill="black"/>
<path d="M58.5363 102.438H53.6582V107.317H58.5363V102.438Z" fill="black"/>
<path d="M63.4142 102.438H58.5361V107.317H63.4142V102.438Z" fill="black"/>
<path d="M68.2926 102.438H63.4146V107.317H68.2926V102.438Z" fill="black"/>
<path d="M97.5607 102.438H92.6826V107.317H97.5607V102.438Z" fill="black"/>
<path d="M102.439 102.438H97.5605V107.317H102.439V102.438Z" fill="black"/>
<path d="M107.317 102.438H102.439V107.317H107.317V102.438Z" fill="black"/>
<path d="M121.951 102.438H117.073V107.317H121.951V102.438Z" fill="black"/>
<path d="M131.707 102.438H126.829V107.317H131.707V102.438Z" fill="black"/>
<path d="M146.341 102.438H141.463V107.317H146.341V102.438Z" fill="black"/>
<path d="M151.219 102.438H146.341V107.317H151.219V102.438Z" fill="black"/>
<path d="M156.097 102.438H151.219V107.317H156.097V102.438Z" fill="black"/>
<path d="M175.609 102.438H170.731V107.317H175.609V102.438Z" fill="black"/>
<path d="M185.366 102.438H180.488V107.317H185.366V102.438Z" fill="black"/>
<path d="M14.6339 107.316H9.75586V112.194H14.6339V107.316Z" fill="black"/>
<path d="M19.5118 107.316H14.6338V112.194H19.5118V107.316Z" fill="black"/>
<path d="M29.2682 107.316H24.3901V112.194H29.2682V107.316Z" fill="black"/>
<path d="M43.902 107.316H39.0239V112.194H43.902V107.316Z" fill="black"/>
<path d="M48.7804 107.316H43.9023V112.194H48.7804V107.316Z" fill="black"/>
<path d="M53.6583 107.316H48.7803V112.194H53.6583V107.316Z" fill="black"/>
<path d="M58.5363 107.316H53.6582V112.194H58.5363V107.316Z" fill="black"/>
<path d="M63.4142 107.316H58.5361V112.194H63.4142V107.316Z" fill="black"/>
<path d="M68.2926 107.316H63.4146V112.194H68.2926V107.316Z" fill="black"/>
<path d="M78.0485 107.316H73.1704V112.194H78.0485V107.316Z" fill="black"/>
<path d="M92.6827 107.316H87.8047V112.194H92.6827V107.316Z" fill="black"/>
<path d="M97.5607 107.316H92.6826V112.194H97.5607V107.316Z" fill="black"/>
<path d="M102.439 107.316H97.5605V112.194H102.439V107.316Z" fill="black"/>
<path d="M117.073 107.316H112.195V112.194H117.073V107.316Z" fill="black"/>
<path d="M146.341 107.316H141.463V112.194H146.341V107.316Z" fill="black"/>
<path d="M151.219 107.316H146.341V112.194H151.219V107.316Z" fill="black"/>
<path d="M156.097 107.316H151.219V112.194H156.097V107.316Z" fill="black"/>
<path d="M165.854 107.316H160.976V112.194H165.854V107.316Z" fill="black"/>
<path d="M170.732 107.316H165.854V112.194H170.732V107.316Z" fill="black"/>
<path d="M190.244 107.316H185.366V112.194H190.244V107.316Z" fill="black"/>
<path d="M19.5118 112.195H14.6338V117.073H19.5118V112.195Z" fill="black"/>
<path d="M24.3898 112.195H19.5117V117.073H24.3898V112.195Z" fill="black"/>
<path d="M29.2682 112.195H24.3901V117.073H29.2682V112.195Z" fill="black"/>
<path d="M53.6583 112.195H48.7803V117.073H53.6583V112.195Z" fill="black"/>
<path d="M58.5363 112.195H53.6582V117.073H58.5363V112.195Z" fill="black"/>
<path d="M63.4142 112.195H58.5361V117.073H63.4142V112.195Z" fill="black"/>
<path d="M73.1705 112.195H68.2925V117.073H73.1705V112.195Z" fill="black"/>
<path d="M78.0485 112.195H73.1704V117.073H78.0485V112.195Z" fill="black"/>
<path d="M107.317 112.195H102.439V117.073H107.317V112.195Z" fill="black"/>
<path d="M112.195 112.195H107.317V117.073H112.195V112.195Z" fill="black"/>
<path d="M117.073 112.195H112.195V117.073H117.073V112.195Z" fill="black"/>
<path d="M121.951 112.195H117.073V117.073H121.951V112.195Z" fill="black"/>
<path d="M126.829 112.195H121.951V117.073H126.829V112.195Z" fill="black"/>
<path d="M131.707 112.195H126.829V117.073H131.707V112.195Z" fill="black"/>
<path d="M151.219 112.195H146.341V117.073H151.219V112.195Z" fill="black"/>
<path d="M156.097 112.195H151.219V117.073H156.097V112.195Z" fill="black"/>
<path d="M175.609 112.195H170.731V117.073H175.609V112.195Z" fill="black"/>
<path d="M14.6339 117.073H9.75586V121.951H14.6339V117.073Z" fill="black"/>
<path d="M19.5118 117.073H14.6338V121.951H19.5118V117.073Z" fill="black"/>
<path d="M24.3898 117.073H19.5117V121.951H24.3898V117.073Z" fill="black"/>
<path d="M34.1461 117.073H29.2681V121.951H34.1461V117.073Z" fill="black"/>
<path d="M43.902 117.073H39.0239V121.951H43.902V117.073Z" fill="black"/>
<path d="M63.4142 117.073H58.5361V121.951H63.4142V117.073Z" fill="black"/>
<path d="M73.1705 117.073H68.2925V121.951H73.1705V117.073Z" fill="black"/>
<path d="M78.0485 117.073H73.1704V121.951H78.0485V117.073Z" fill="black"/>
<path d="M97.5607 117.073H92.6826V121.951H97.5607V117.073Z" fill="black"/>
<path d="M112.195 117.073H107.317V121.951H112.195V117.073Z" fill="black"/>
<path d="M126.829 117.073H121.951V121.951H126.829V117.073Z" fill="black"/>
<path d="M131.707 117.073H126.829V121.951H131.707V117.073Z" fill="black"/>
<path d="M160.975 117.073H156.097V121.951H160.975V117.073Z" fill="black"/>
<path d="M165.854 117.073H160.976V121.951H165.854V117.073Z" fill="black"/>
<path d="M14.6339 121.951H9.75586V126.829H14.6339V121.951Z" fill="black"/>
<path d="M19.5118 121.951H14.6338V126.829H19.5118V121.951Z" fill="black"/>
<path d="M39.024 121.951H34.146V126.829H39.024V121.951Z" fill="black"/>
<path d="M53.6583 121.951H48.7803V126.829H53.6583V121.951Z" fill="black"/>
<path d="M58.5363 121.951H53.6582V126.829H58.5363V121.951Z" fill="black"/>
<path d="M63.4142 121.951H58.5361V126.829H63.4142V121.951Z" fill="black"/>
<path d="M68.2926 121.951H63.4146V126.829H68.2926V121.951Z" fill="black"/>
<path d="M73.1705 121.951H68.2925V126.829H73.1705V121.951Z" fill="black"/>
<path d="M102.439 121.951H97.5605V126.829H102.439V121.951Z" fill="black"/>
<path d="M121.951 121.951H117.073V126.829H121.951V121.951Z" fill="black"/>
<path d="M131.707 121.951H126.829V126.829H131.707V121.951Z" fill="black"/>
<path d="M136.585 121.951H131.707V126.829H136.585V121.951Z" fill="black"/>
<path d="M146.341 121.951H141.463V126.829H146.341V121.951Z" fill="black"/>
<path d="M156.097 121.951H151.219V126.829H156.097V121.951Z" fill="black"/>
<path d="M170.732 121.951H165.854V126.829H170.732V121.951Z" fill="black"/>
<path d="M175.609 121.951H170.731V126.829H175.609V121.951Z" fill="black"/>
<path d="M180.487 121.951H175.609V126.829H180.487V121.951Z" fill="black"/>
<path d="M190.244 121.951H185.366V126.829H190.244V121.951Z" fill="black"/>
<path d="M24.3898 126.829H19.5117V131.707H24.3898V126.829Z" fill="black"/>
<path d="M34.1461 126.829H29.2681V131.707H34.1461V126.829Z" fill="black"/>
<path d="M43.902 126.829H39.0239V131.707H43.902V126.829Z" fill="black"/>
<path d="M48.7804 126.829H43.9023V131.707H48.7804V126.829Z" fill="black"/>
<path d="M63.4142 126.829H58.5361V131.707H63.4142V126.829Z" fill="black"/>
<path d="M68.2926 126.829H63.4146V131.707H68.2926V126.829Z" fill="black"/>
<path d="M73.1705 126.829H68.2925V131.707H73.1705V126.829Z" fill="black"/>
<path d="M87.8048 126.829H82.9268V131.707H87.8048V126.829Z" fill="black"/>
<path d="M102.439 126.829H97.5605V131.707H102.439V126.829Z" fill="black"/>
<path d="M112.195 126.829H107.317V131.707H112.195V126.829Z" fill="black"/>
<path d="M126.829 126.829H121.951V131.707H126.829V126.829Z" fill="black"/>
<path d="M136.585 126.829H131.707V131.707H136.585V126.829Z" fill="black"/>
<path d="M156.097 126.829H151.219V131.707H156.097V126.829Z" fill="black"/>
<path d="M160.975 126.829H156.097V131.707H160.975V126.829Z" fill="black"/>
<path d="M170.732 126.829H165.854V131.707H170.732V126.829Z" fill="black"/>
<path d="M180.487 126.829H175.609V131.707H180.487V126.829Z" fill="black"/>
<path d="M185.366 126.829H180.488V131.707H185.366V126.829Z" fill="black"/>
<path d="M24.3898 131.707H19.5117V136.585H24.3898V131.707Z" fill="black"/>
<path d="M29.2682 131.707H24.3901V136.585H29.2682V131.707Z" fill="black"/>
<path d="M34.1461 131.707H29.2681V136.585H34.1461V131.707Z" fill="black"/>
<path d="M48.7804 131.707H43.9023V136.585H48.7804V131.707Z" fill="black"/>
<path d="M53.6583 131.707H48.7803V136.585H53.6583V131.707Z" fill="black"/>
<path d="M63.4142 131.707H58.5361V136.585H63.4142V131.707Z" fill="black"/>
<path d="M68.2926 131.707H63.4146V136.585H68.2926V131.707Z" fill="black"/>
<path d="M92.6827 131.707H87.8047V136.585H92.6827V131.707Z" fill="black"/>
<path d="M97.5607 131.707H92.6826V136.585H97.5607V131.707Z" fill="black"/>
<path d="M102.439 131.707H97.5605V136.585H102.439V131.707Z" fill="black"/>
<path d="M112.195 131.707H107.317V136.585H112.195V131.707Z" fill="black"/>
<path d="M121.951 131.707H117.073V136.585H121.951V131.707Z" fill="black"/>
<path d="M136.585 131.707H131.707V136.585H136.585V131.707Z" fill="black"/>
<path d="M146.341 131.707H141.463V136.585H146.341V131.707Z" fill="black"/>
<path d="M151.219 131.707H146.341V136.585H151.219V131.707Z" fill="black"/>
<path d="M156.097 131.707H151.219V136.585H156.097V131.707Z" fill="black"/>
<path d="M160.975 131.707H156.097V136.585H160.975V131.707Z" fill="black"/>
<path d="M165.854 131.707H160.976V136.585H165.854V131.707Z" fill="black"/>
<path d="M170.732 131.707H165.854V136.585H170.732V131.707Z" fill="black"/>
<path d="M175.609 131.707H170.731V136.585H175.609V131.707Z" fill="black"/>
<path d="M185.366 131.707H180.488V136.585H185.366V131.707Z" fill="black"/>
<path d="M190.244 131.707H185.366V136.585H190.244V131.707Z" fill="black"/>
<path d="M19.5118 136.585H14.6338V141.463H19.5118V136.585Z" fill="black"/>
<path d="M43.902 136.585H39.0239V141.463H43.902V136.585Z" fill="black"/>
<path d="M48.7804 136.585H43.9023V141.463H48.7804V136.585Z" fill="black"/>
<path d="M53.6583 136.585H48.7803V141.463H53.6583V136.585Z" fill="black"/>
<path d="M63.4142 136.585H58.5361V141.463H63.4142V136.585Z" fill="black"/>
<path d="M68.2926 136.585H63.4146V141.463H68.2926V136.585Z" fill="black"/>
<path d="M78.0485 136.585H73.1704V141.463H78.0485V136.585Z" fill="black"/>
<path d="M82.9264 136.585H78.0483V141.463H82.9264V136.585Z" fill="black"/>
<path d="M87.8048 136.585H82.9268V141.463H87.8048V136.585Z" fill="black"/>
<path d="M92.6827 136.585H87.8047V141.463H92.6827V136.585Z" fill="black"/>
<path d="M97.5607 136.585H92.6826V141.463H97.5607V136.585Z" fill="black"/>
<path d="M107.317 136.585H102.439V141.463H107.317V136.585Z" fill="black"/>
<path d="M112.195 136.585H107.317V141.463H112.195V136.585Z" fill="black"/>
<path d="M121.951 136.585H117.073V141.463H121.951V136.585Z" fill="black"/>
<path d="M131.707 136.585H126.829V141.463H131.707V136.585Z" fill="black"/>
<path d="M141.463 136.585H136.585V141.463H141.463V136.585Z" fill="black"/>
<path d="M175.609 136.585H170.731V141.463H175.609V136.585Z" fill="black"/>
<path d="M180.487 136.585H175.609V141.463H180.487V136.585Z" fill="black"/>
<path d="M185.366 136.585H180.488V141.463H185.366V136.585Z" fill="black"/>
<path d="M14.6339 141.463H9.75586V146.341H14.6339V141.463Z" fill="black"/>
<path d="M24.3898 141.463H19.5117V146.341H24.3898V141.463Z" fill="black"/>
<path d="M53.6583 141.463H48.7803V146.341H53.6583V141.463Z" fill="black"/>
<path d="M68.2926 141.463H63.4146V146.341H68.2926V141.463Z" fill="black"/>
<path d="M73.1705 141.463H68.2925V146.341H73.1705V141.463Z" fill="black"/>
<path d="M92.6827 141.463H87.8047V146.341H92.6827V141.463Z" fill="black"/>
<path d="M117.073 141.463H112.195V146.341H117.073V141.463Z" fill="black"/>
<path d="M131.707 141.463H126.829V146.341H131.707V141.463Z" fill="black"/>
<path d="M151.219 141.463H146.341V146.341H151.219V141.463Z" fill="black"/>
<path d="M160.975 141.463H156.097V146.341H160.975V141.463Z" fill="black"/>
<path d="M165.854 141.463H160.976V146.341H165.854V141.463Z" fill="black"/>
<path d="M185.366 141.463H180.488V146.341H185.366V141.463Z" fill="black"/>
<path d="M34.1461 146.341H29.2681V151.219H34.1461V146.341Z" fill="black"/>
<path d="M43.902 146.341H39.0239V151.219H43.902V146.341Z" fill="black"/>
<path d="M48.7804 146.341H43.9023V151.219H48.7804V146.341Z" fill="black"/>
<path d="M58.5363 146.341H53.6582V151.219H58.5363V146.341Z" fill="black"/>
<path d="M63.4142 146.341H58.5361V151.219H63.4142V146.341Z" fill="black"/>
<path d="M73.1705 146.341H68.2925V151.219H73.1705V146.341Z" fill="black"/>
<path d="M87.8048 146.341H82.9268V151.219H87.8048V146.341Z" fill="black"/>
<path d="M102.439 146.341H97.5605V151.219H102.439V146.341Z" fill="black"/>
<path d="M117.073 146.341H112.195V151.219H117.073V146.341Z" fill="black"/>
<path d="M121.951 146.341H117.073V151.219H121.951V146.341Z" fill="black"/>
<path d="M136.585 146.341H131.707V151.219H136.585V146.341Z" fill="black"/>
<path d="M146.341 146.341H141.463V151.219H146.341V146.341Z" fill="black"/>
<path d="M151.219 146.341H146.341V151.219H151.219V146.341Z" fill="black"/>
<path d="M156.097 146.341H151.219V151.219H156.097V146.341Z" fill="black"/>
<path d="M160.975 146.341H156.097V151.219H160.975V146.341Z" fill="black"/>
<path d="M165.854 146.341H160.976V151.219H165.854V146.341Z" fill="black"/>
<path d="M170.732 146.341H165.854V151.219H170.732V146.341Z" fill="black"/>
<path d="M180.487 146.341H175.609V151.219H180.487V146.341Z" fill="black"/>
<path d="M53.6583 151.22H48.7803V156.098H53.6583V151.22Z" fill="black"/>
<path d="M82.9264 151.22H78.0483V156.098H82.9264V151.22Z" fill="black"/>
<path d="M87.8048 151.22H82.9268V156.098H87.8048V151.22Z" fill="black"/>
<path d="M97.5607 151.22H92.6826V156.098H97.5607V151.22Z" fill="black"/>
<path d="M112.195 151.22H107.317V156.098H112.195V151.22Z" fill="black"/>
<path d="M126.829 151.22H121.951V156.098H126.829V151.22Z" fill="black"/>
<path d="M131.707 151.22H126.829V156.098H131.707V151.22Z" fill="black"/>
<path d="M136.585 151.22H131.707V156.098H136.585V151.22Z" fill="black"/>
<path d="M151.219 151.22H146.341V156.098H151.219V151.22Z" fill="black"/>
<path d="M170.732 151.22H165.854V156.098H170.732V151.22Z" fill="black"/>
<path d="M180.487 151.22H175.609V156.098H180.487V151.22Z" fill="black"/>
<path d="M190.244 151.22H185.366V156.098H190.244V151.22Z" fill="black"/>
<path d="M53.6583 156.098H48.7803V160.976H53.6583V156.098Z" fill="black"/>
<path d="M58.5363 156.098H53.6582V160.976H58.5363V156.098Z" fill="black"/>
<path d="M63.4142 156.098H58.5361V160.976H63.4142V156.098Z" fill="black"/>
<path d="M87.8048 156.098H82.9268V160.976H87.8048V156.098Z" fill="black"/>
<path d="M97.5607 156.098H92.6826V160.976H97.5607V156.098Z" fill="black"/>
<path d="M112.195 156.098H107.317V160.976H112.195V156.098Z" fill="black"/>
<path d="M121.951 156.098H117.073V160.976H121.951V156.098Z" fill="black"/>
<path d="M136.585 156.098H131.707V160.976H136.585V156.098Z" fill="black"/>
<path d="M141.463 156.098H136.585V160.976H141.463V156.098Z" fill="black"/>
<path d="M151.219 156.098H146.341V160.976H151.219V156.098Z" fill="black"/>
<path d="M160.975 156.098H156.097V160.976H160.975V156.098Z" fill="black"/>
<path d="M170.732 156.098H165.854V160.976H170.732V156.098Z" fill="black"/>
<path d="M180.487 156.098H175.609V160.976H180.487V156.098Z" fill="black"/>
<path d="M185.366 156.098H180.488V160.976H185.366V156.098Z" fill="black"/>
<path d="M190.244 156.098H185.366V160.976H190.244V156.098Z" fill="black"/>
<path d="M53.6583 160.976H48.7803V165.854H53.6583V160.976Z" fill="black"/>
<path d="M73.1705 160.976H68.2925V165.854H73.1705V160.976Z" fill="black"/>
<path d="M82.9264 160.976H78.0483V165.854H82.9264V160.976Z" fill="black"/>
<path d="M87.8048 160.976H82.9268V165.854H87.8048V160.976Z" fill="black"/>
<path d="M92.6827 160.976H87.8047V165.854H92.6827V160.976Z" fill="black"/>
<path d="M107.317 160.976H102.439V165.854H107.317V160.976Z" fill="black"/>
<path d="M131.707 160.976H126.829V165.854H131.707V160.976Z" fill="black"/>
<path d="M141.463 160.976H136.585V165.854H141.463V160.976Z" fill="black"/>
<path d="M151.219 160.976H146.341V165.854H151.219V160.976Z" fill="black"/>
<path d="M170.732 160.976H165.854V165.854H170.732V160.976Z" fill="black"/>
<path d="M78.0485 165.854H73.1704V170.732H78.0485V165.854Z" fill="black"/>
<path d="M82.9264 165.854H78.0483V170.732H82.9264V165.854Z" fill="black"/>
<path d="M87.8048 165.854H82.9268V170.732H87.8048V165.854Z" fill="black"/>
<path d="M102.439 165.854H97.5605V170.732H102.439V165.854Z" fill="black"/>
<path d="M121.951 165.854H117.073V170.732H121.951V165.854Z" fill="black"/>
<path d="M126.829 165.854H121.951V170.732H126.829V165.854Z" fill="black"/>
<path d="M131.707 165.854H126.829V170.732H131.707V165.854Z" fill="black"/>
<path d="M151.219 165.854H146.341V170.732H151.219V165.854Z" fill="black"/>
<path d="M156.097 165.854H151.219V170.732H156.097V165.854Z" fill="black"/>
<path d="M160.975 165.854H156.097V170.732H160.975V165.854Z" fill="black"/>
<path d="M165.854 165.854H160.976V170.732H165.854V165.854Z" fill="black"/>
<path d="M170.732 165.854H165.854V170.732H170.732V165.854Z" fill="black"/>
<path d="M175.609 165.854H170.731V170.732H175.609V165.854Z" fill="black"/>
<path d="M53.6583 170.731H48.7803V175.609H53.6583V170.731Z" fill="black"/>
<path d="M87.8048 170.731H82.9268V175.609H87.8048V170.731Z" fill="black"/>
<path d="M102.439 170.731H97.5605V175.609H102.439V170.731Z" fill="black"/>
<path d="M112.195 170.731H107.317V175.609H112.195V170.731Z" fill="black"/>
<path d="M117.073 170.731H112.195V175.609H117.073V170.731Z" fill="black"/>
<path d="M126.829 170.731H121.951V175.609H126.829V170.731Z" fill="black"/>
<path d="M131.707 170.731H126.829V175.609H131.707V170.731Z" fill="black"/>
<path d="M141.463 170.731H136.585V175.609H141.463V170.731Z" fill="black"/>
<path d="M151.219 170.731H146.341V175.609H151.219V170.731Z" fill="black"/>
<path d="M156.097 170.731H151.219V175.609H156.097V170.731Z" fill="black"/>
<path d="M160.975 170.731H156.097V175.609H160.975V170.731Z" fill="black"/>
<path d="M170.732 170.731H165.854V175.609H170.732V170.731Z" fill="black"/>
<path d="M175.609 170.731H170.731V175.609H175.609V170.731Z" fill="black"/>
<path d="M190.244 170.731H185.366V175.609H190.244V170.731Z" fill="black"/>
<path d="M53.6583 175.609H48.7803V180.487H53.6583V175.609Z" fill="black"/>
<path d="M63.4142 175.609H58.5361V180.487H63.4142V175.609Z" fill="black"/>
<path d="M82.9264 175.609H78.0483V180.487H82.9264V175.609Z" fill="black"/>
<path d="M92.6827 175.609H87.8047V180.487H92.6827V175.609Z" fill="black"/>
<path d="M97.5607 175.609H92.6826V180.487H97.5607V175.609Z" fill="black"/>
<path d="M102.439 175.609H97.5605V180.487H102.439V175.609Z" fill="black"/>
<path d="M107.317 175.609H102.439V180.487H107.317V175.609Z" fill="black"/>
<path d="M112.195 175.609H107.317V180.487H112.195V175.609Z" fill="black"/>
<path d="M126.829 175.609H121.951V180.487H126.829V175.609Z" fill="black"/>
<path d="M136.585 175.609H131.707V180.487H136.585V175.609Z" fill="black"/>
<path d="M141.463 175.609H136.585V180.487H141.463V175.609Z" fill="black"/>
<path d="M160.975 175.609H156.097V180.487H160.975V175.609Z" fill="black"/>
<path d="M170.732 175.609H165.854V180.487H170.732V175.609Z" fill="black"/>
<path d="M175.609 175.609H170.731V180.487H175.609V175.609Z" fill="black"/>
<path d="M180.487 175.609H175.609V180.487H180.487V175.609Z" fill="black"/>
<path d="M63.4142 180.487H58.5361V185.365H63.4142V180.487Z" fill="black"/>
<path d="M68.2926 180.487H63.4146V185.365H68.2926V180.487Z" fill="black"/>
<path d="M78.0485 180.487H73.1704V185.365H78.0485V180.487Z" fill="black"/>
<path d="M92.6827 180.487H87.8047V185.365H92.6827V180.487Z" fill="black"/>
<path d="M102.439 180.487H97.5605V185.365H102.439V180.487Z" fill="black"/>
<path d="M112.195 180.487H107.317V185.365H112.195V180.487Z" fill="black"/>
<path d="M121.951 180.487H117.073V185.365H121.951V180.487Z" fill="black"/>
<path d="M131.707 180.487H126.829V185.365H131.707V180.487Z" fill="black"/>
<path d="M136.585 180.487H131.707V185.365H136.585V180.487Z" fill="black"/>
<path d="M141.463 180.487H136.585V185.365H141.463V180.487Z" fill="black"/>
<path d="M156.097 180.487H151.219V185.365H156.097V180.487Z" fill="black"/>
<path d="M160.975 180.487H156.097V185.365H160.975V180.487Z" fill="black"/>
<path d="M165.854 180.487H160.976V185.365H165.854V180.487Z" fill="black"/>
<path d="M170.732 180.487H165.854V185.365H170.732V180.487Z" fill="black"/>
<path d="M175.609 180.487H170.731V185.365H175.609V180.487Z" fill="black"/>
<path d="M180.487 180.487H175.609V185.365H180.487V180.487Z" fill="black"/>
<path d="M53.6583 185.365H48.7803V190.243H53.6583V185.365Z" fill="black"/>
<path d="M68.2926 185.365H63.4146V190.243H68.2926V185.365Z" fill="black"/>
<path d="M73.1705 185.365H68.2925V190.243H73.1705V185.365Z" fill="black"/>
<path d="M87.8048 185.365H82.9268V190.243H87.8048V185.365Z" fill="black"/>
<path d="M97.5607 185.365H92.6826V190.243H97.5607V185.365Z" fill="black"/>
<path d="M107.317 185.365H102.439V190.243H107.317V185.365Z" fill="black"/>
<path d="M131.707 185.365H126.829V190.243H131.707V185.365Z" fill="black"/>
<path d="M136.585 185.365H131.707V190.243H136.585V185.365Z" fill="black"/>
<path d="M141.463 185.365H136.585V190.243H141.463V185.365Z" fill="black"/>
<path d="M156.097 185.365H151.219V190.243H156.097V185.365Z" fill="black"/>
<path d="M160.975 185.365H156.097V190.243H160.975V185.365Z" fill="black"/>
<path d="M170.732 185.365H165.854V190.243H170.732V185.365Z" fill="black"/>
<path d="M175.609 185.365H170.731V190.243H175.609V185.365Z" fill="black"/>
<path d="M180.487 185.365H175.609V190.243H180.487V185.365Z" fill="black"/>
<path d="M185.366 185.365H180.488V190.243H185.366V185.365Z" fill="black"/>
<path d="M190.244 185.365H185.366V190.243H190.244V185.365Z" fill="black"/>
<path d="M38.7803 9.75586H14.8778H9.75586V14.8778V38.7803V43.9022H14.8778H38.7803H43.9022V38.7803V14.8778V9.75586H38.7803ZM38.7803 38.7803H14.8778V14.8778H38.7803V38.7803Z" fill="black"/>
<path d="M185.122 9.75586H161.219H156.097V14.8778V38.7803V43.9022H161.219H185.122H190.244V38.7803V14.8778V9.75586H185.122ZM185.122 38.7803H161.219V14.8778H185.122V38.7803Z" fill="black"/>
<path d="M38.7803 156.098H14.8778H9.75586V161.22V185.122V190.244H14.8778H38.7803H43.9022V185.122V161.22V156.098H38.7803ZM38.7803 185.122H14.8778V161.22H38.7803V185.122Z" fill="black"/>
<path d="M34.1459 19.5117H19.5117V34.1459H34.1459V19.5117Z" fill="black"/>
<path d="M180.488 19.5117H165.854V34.1459H180.488V19.5117Z" fill="black"/>
<path d="M34.1459 165.854H19.5117V180.488H34.1459V165.854Z" fill="black"/>
</g>
<defs>
<clipPath id="clip0_38_6543">
<rect width="200" height="200" fill="white"/>
</clipPath>
</defs>
</svg>
