<svg width="13" height="20" viewBox="0 0 13 20" fill="none" xmlns="http://www.w3.org/2000/svg">
<path fill-rule="evenodd" clip-rule="evenodd" d="M4.1675 11.3689C4.95367 10.6182 4.95367 9.3818 4.1675 8.6311L4.06007 8.5286C2.04496 6.60535 0.488326 5.12024 0.0190886 2.00732C-0.14693 0.90967 0.793494 0 1.92533 0H6.49996H11.0747C12.2065 0 13.1469 0.90967 12.9809 2.00732C12.5117 5.12024 10.955 6.60535 8.93994 8.5286L8.83254 8.6311C8.04635 9.3818 8.04635 10.6182 8.83254 11.3689L8.93994 11.4714C10.955 13.3947 12.5117 14.8798 12.9809 17.9927C13.1469 19.0903 12.2065 20 11.0747 20H6.49996H1.92533C0.793494 20 -0.14693 19.0903 0.0190886 17.9927C0.488326 14.8798 2.04496 13.3947 4.06007 11.4714L4.1675 11.3689ZM4.85057 13.0665L4.84327 13.0728C3.30764 14.4459 2.16506 15.4681 2.01615 17.9963C2.00687 18.1519 2.07425 18.2915 2.18411 18.384C2.26956 18.4564 2.38137 18.5 2.50344 18.5H6.49996H10.496C10.6401 18.5 10.77 18.4392 10.8593 18.3422C10.9428 18.2518 10.9912 18.13 10.9833 17.9963C10.8344 15.4681 9.69184 14.4459 8.15675 13.0728C7.75045 12.7096 7.31685 12.3218 6.86715 11.8751C6.66456 11.6738 6.33496 11.6738 6.13236 11.8751C5.68506 12.3192 5.25396 12.7052 4.85057 13.0665Z" fill="black" fill-opacity="0.32"/>
</svg>
